<?xml version="1.0" encoding="UTF-8" standalone="no"?>
<svg
   xmlns:dc="http://purl.org/dc/elements/1.1/"
   xmlns:cc="http://creativecommons.org/ns#"
   xmlns:rdf="http://www.w3.org/1999/02/22-rdf-syntax-ns#"
   xmlns:svg="http://www.w3.org/2000/svg"
   xmlns="http://www.w3.org/2000/svg"
   xmlns:sodipodi="http://sodipodi.sourceforge.net/DTD/sodipodi-0.dtd"
   xmlns:inkscape="http://www.inkscape.org/namespaces/inkscape"
   inkscape:version="1.0beta2 (2b71d25, 2019-12-03)"
   sodipodi:docname="opendecks-new.svg"
   id="svg868"
   viewBox="0 0 53.648 51.004"
   version="1.1"
   height="51.004mm"
   width="53.648mm">
  <metadata
     id="metadata874">
    <rdf:RDF>
      <cc:Work
         rdf:about="">
        <dc:format>image/svg+xml</dc:format>
        <dc:type
           rdf:resource="http://purl.org/dc/dcmitype/StillImage" />
      </cc:Work>
    </rdf:RDF>
  </metadata>
  <defs
     id="defs872" />
  <sodipodi:namedview
     inkscape:current-layer="text864"
     inkscape:window-maximized="0"
     inkscape:window-y="23"
     inkscape:window-x="0"
     inkscape:cy="96.385515"
     inkscape:cx="101.38204"
     inkscape:zoom="3.486001"
     showgrid="false"
     id="namedview870"
     inkscape:window-height="1155"
     inkscape:window-width="1920"
     inkscape:pageshadow="2"
     inkscape:pageopacity="0"
     guidetolerance="10"
     gridtolerance="10"
     objecttolerance="10"
     borderopacity="1"
     inkscape:document-rotation="0"
     bordercolor="#666666"
     pagecolor="#ffffff" />
  <g
     id="g866"
     transform="translate(-73.718 -129.47)">
    <path
       id="path833"
       stroke-linejoin="round"
       stroke-linecap="round"
       stroke="#000"
       fill-opacity="0"
       d="m123.37 161.44a25 25 0 0 1-27.411 18.316 25 25 0 0 1-21.737-24.786 25 25 0 0 1 21.737-24.786 25 25 0 0 1 27.411 18.316" />
    <g
       style="font-size:11.289px;line-height:1.25;font-family:sans-serif;fill:#000000;stroke-width:0.73079"
       id="text837"
       aria-label="OPEN">
      <path
         id="path876"
         style="font-family:Geometos;stroke-width:0.73079"
         d="m 99.131885,159.19203 q -0.880542,0 -1.659483,-0.33867 -0.778941,-0.33867 -1.365969,-0.91441 -0.575738,-0.58703 -0.914408,-1.36597 -0.33867,-0.77894 -0.33867,-1.67077 0,-0.88054 0.33867,-1.65949 0.33867,-0.79023 0.914408,-1.36596 0.587028,-0.58703 1.365969,-0.9257 0.778941,-0.33867 1.659483,-0.33867 0.891835,0 1.670775,0.33867 0.77894,0.33867 1.35468,0.9257 0.58703,0.57573 0.9257,1.36596 0.33867,0.77895 0.33867,1.65949 0,0.89183 -0.33867,1.67077 -0.33867,0.77894 -0.9257,1.36597 -0.57574,0.57574 -1.35468,0.91441 -0.77894,0.33867 -1.670775,0.33867 z m 0,-7.10078 q -0.56445,0 -1.061166,0.23707 -0.485427,0.22578 -0.857964,0.6096 -0.361248,0.38383 -0.575739,0.90312 -0.214491,0.50801 -0.214491,1.06117 0,0.56445 0.214491,1.07245 0.214491,0.50801 0.575739,0.90312 0.372537,0.38383 0.857964,0.6209 0.496716,0.22578 1.061166,0.22578 0.56445,0 1.049875,-0.22578 0.49672,-0.23707 0.85797,-0.6209 0.37253,-0.39511 0.58702,-0.90312 0.2145,-0.508 0.2145,-1.07245 0,-0.55316 -0.2145,-1.06117 -0.21449,-0.51929 -0.58702,-0.90312 -0.36125,-0.38382 -0.85797,-0.6096 -0.485425,-0.23707 -1.049875,-0.23707 z" />
      <path
         id="path878"
         style="font-family:Geometos;stroke-width:0.73079"
         d="m 108.4984,150.77043 q 0.60961,0 1.14019,0.23707 0.54187,0.22578 0.93699,0.6209 0.39511,0.39511 0.62089,0.93698 0.23707,0.53059 0.23707,1.14019 0,0.60961 -0.2032,1.1289 -0.2032,0.5193 -0.59832,0.91441 -0.39511,0.38383 -1.00472,0.60961 -0.59831,0.21449 -1.38854,0.21449 h -1.84011 v 2.461 h -1.58046 v -8.26355 z m 0,4.38014 q 0.34996,0 0.60961,-0.11289 0.25965,-0.12418 0.41769,-0.32739 0.16934,-0.2032 0.24836,-0.46284 0.079,-0.25965 0.079,-0.54188 0,-0.28222 -0.1016,-0.55316 -0.1016,-0.28222 -0.29351,-0.49671 -0.19191,-0.21449 -0.47414,-0.34996 -0.28222,-0.13547 -0.65476,-0.13547 h -1.93042 v 2.9803 z" />
      <path
         id="path880"
         style="font-family:Geometos;stroke-width:0.73079"
         d="m 114.0383,152.17027 v 2.06589 h 3.99631 v 1.4337 h -3.99631 v 1.94171 h 4.50432 v 1.42241 h -6.07349 v -8.26355 h 6.07349 v 1.39984 z" />
      <path
         id="path882"
         style="font-family:Geometos;stroke-width:0.73079"
         d="m 127.19669,159.03398 -5.4413,-4.91071 v 4.91071 h -1.56917 v -8.25226 h 0.16934 l 5.43001,4.98974 v -4.98974 h 1.58046 v 8.25226 z" />
    </g>
    <g
       id="test">
      <g
         id="g847"
         stroke-opacity=".6"
         stroke-linejoin="round"
         stroke-linecap="round"
         stroke="#000"
         fill-opacity="0">
        <path
           id="path839"
           d="m99.218 133.97a21 21 0 0 1 13.499 4.9131" />
        <path
           id="path841"
           d="m99.218 137.97a17 17 0 0 1 10.927 3.9772" />
        <path
           id="path843"
           d="m99.218 141.97a13 13 0 0 1 8.3562 3.0414" />
        <path
           id="path845"
           d="m99.218 145.97a9 9 0 0 1 5.7851 2.1056" />
      </g>
      <circle
         id="circle849"
         fill-rule="evenodd"
         fill-opacity=".6"
         r=".5"
         cy="154.97"
         cx="99.218" />
      <g
         id="g859"
         stroke-opacity=".6"
         stroke-linejoin="round"
         stroke-linecap="round"
         stroke="#000"
         fill-opacity="0">
        <path
           id="path851"
           d="m99.218 175.97a21 21 0 0 1-14.849-6.1508" />
        <path
           id="path853"
           d="m99.218 171.97a17 17 0 0 1-12.021-4.9792" />
        <path
           id="path855"
           d="m99.218 167.97a13 13 0 0 1-9.1924-3.8076" />
        <path
           id="path857"
           d="m99.218 163.97a9 9 0 0 1-6.364-2.636" />
      </g>
    </g>
    <g
       style="font-size:4.9389px;line-height:1.25;font-family:'Roboto Slab';fill:#000000;stroke-width:0.73079"
       id="text864"
       aria-label="DECKS">
      <path
         id="path885"
         style="font-family:'Roboto Slab';fill:#000000;fill-opacity:0.6;stroke-width:0.73079"
         d="m 104.62258,161.04121 q 0.6873,0 1.1045,0.42444 0.41962,0.42202 0.41962,1.09244 v 0.4799 q 0,0.67283 -0.41962,1.09486 -0.4172,0.41961 -1.1045,0.41961 h -1.47106 v -0.30386 l 0.39309,-0.0675 V 161.415 l -0.39309,-0.0675 v -0.30627 h 0.39309 z m -0.60289,0.37379 v 2.76608 h 0.60289 q 0.48714,0 0.76688,-0.32074 0.28216,-0.32074 0.28216,-0.82235 v -0.48472 q 0,-0.49679 -0.28216,-0.81753 -0.27974,-0.32074 -0.76688,-0.32074 z" />
      <path
         id="path887"
         style="font-family:'Roboto Slab';fill:#000000;fill-opacity:0.6;stroke-width:0.73079"
         d="m 106.57596,164.55246 v -0.30386 l 0.39308,-0.0675 V 161.415 l -0.39308,-0.0675 v -0.30627 h 2.69613 v 0.84405 h -0.40755 l -0.0386,-0.47026 h -1.38183 v 1.13585 h 1.34325 v 0.3738 h -1.34325 v 1.25643 h 1.41077 l 0.0386,-0.47026 h 0.40514 v 0.84164 z" />
      <path
         id="path889"
         style="font-family:'Roboto Slab';fill:#000000;fill-opacity:0.6;stroke-width:0.73079"
         d="m 112.45296,162.11918 h -0.33521 l -0.0892,-0.49678 q -0.11576,-0.11334 -0.28457,-0.18569 -0.16881,-0.0724 -0.40273,-0.0724 -0.54743,0 -0.84164,0.39791 -0.29421,0.3955 -0.29421,1.00563 v 0.0555 q 0,0.61013 0.28698,1.01045 0.28939,0.39791 0.80064,0.39791 0.23875,0 0.43408,-0.0748 0.19534,-0.0748 0.30145,-0.18328 l 0.0892,-0.49678 h 0.33521 v 0.6246 q -0.15193,0.19533 -0.45579,0.34967 -0.30386,0.15193 -0.70418,0.15193 -0.68489,0 -1.12379,-0.50643 -0.43891,-0.50643 -0.43891,-1.27331 v -0.0506 q 0,-0.7717 0.43167,-1.27572 0.43167,-0.50643 1.13103,-0.50643 0.40032,0 0.70418,0.15675 0.30386,0.15434 0.45579,0.34727 z" />
      <path
         id="path891"
         style="font-family:'Roboto Slab';fill:#000000;fill-opacity:0.6;stroke-width:0.73079"
         d="m 112.91357,164.2486 0.39308,-0.0675 V 161.415 l -0.39308,-0.0675 v -0.30627 h 1.26125 v 0.30627 l -0.39309,0.0675 v 1.17926 h 0.36415 l 0.98151,-1.21302 -0.26286,-0.0338 v -0.30627 h 1.11415 v 0.30627 l -0.33039,0.0603 -1.07315,1.33119 1.17202,1.44935 0.33039,0.0603 v 0.30386 h -1.15273 v -0.30386 l 0.26768,-0.0338 -1.0008,-1.24678 h -0.40997 v 1.21302 l 0.39309,0.0675 v 0.30386 h -1.26125 z" />
      <path
         id="path893"
         style="font-family:'Roboto Slab';fill:#000000;fill-opacity:0.6;stroke-width:0.73079"
         d="m 118.95697,162.07819 h -0.35933 l -0.0892,-0.50161 q -0.10852,-0.0916 -0.28938,-0.15193 -0.18087,-0.0603 -0.41962,-0.0603 -0.37861,0 -0.58119,0.16158 -0.20257,0.15916 -0.20257,0.4172 0,0.2291 0.20498,0.38344 0.2074,0.15193 0.66801,0.26768 0.55466,0.13746 0.84164,0.40515 0.28939,0.26768 0.28939,0.66318 0,0.42444 -0.34727,0.68247 -0.34485,0.25804 -0.90434,0.25804 -0.40514,0 -0.72106,-0.13263 -0.3135,-0.13264 -0.51125,-0.34727 v -0.65354 h 0.35691 l 0.0916,0.50402 q 0.13746,0.11335 0.32797,0.18569 0.19052,0.0724 0.45579,0.0724 0.35933,0 0.56672,-0.15193 0.20981,-0.15193 0.20981,-0.41238 0,-0.24115 -0.18087,-0.40273 -0.18087,-0.16399 -0.63907,-0.27492 -0.55707,-0.13264 -0.87057,-0.39067 -0.31351,-0.25804 -0.31351,-0.64872 0,-0.41238 0.34968,-0.68488 0.34968,-0.27492 0.90916,-0.27492 0.36897,0 0.67042,0.12781 0.30386,0.1254 0.48714,0.30627 z" />
    </g>
  </g>
</svg>
